name GIL01_xslow2Moments.mot
datacolumns 7
datarows 81
range 0.99166662 1.65833330
endheader

                time	          RHipMoment	          LHipMoment	         RKneeMoment	         LKneeMoment	        RAnkleMoment	        LAnkleMoment	
          0.99166662	        162.23637390	       -117.95091248	        142.63812256	        -14.30116844	       -246.44381714	        372.27120972	
          0.99999994	        184.41766357	       -104.12155151	        133.74928284	         -5.52785969	       -246.53959656	        320.98568726	
          1.00833321	        195.49690247	        -90.59647369	        131.89778137	          4.35426998	       -246.95855713	        268.13790894	
          1.01666665	        175.43392944	        -65.99370575	        136.12181091	          7.13314390	       -247.68003845	        215.53459167	
          1.02499998	        146.80041504	        -43.40774536	        141.20480347	          5.35099316	       -249.92782593	        163.71018982	
          1.03333330	        162.33016968	          1.29278302	        142.78302002	         -6.41537428	       -252.53067017	        115.74983215	
          1.04166663	        192.43455505	         36.11542892	        143.55836487	        -15.35336113	       -255.97497559	         72.63172913	
          1.04999995	        182.25440979	         32.86167145	        148.31318665	        -14.67338753	       -259.75665283	         36.86352158	
          1.05833328	        138.79833984	         11.28301334	        158.42822266	        -10.00858402	       -264.30920410	          7.81553411	
          1.06666660	        127.20361328	          5.40484571	        166.14074707	        -10.95544815	       -267.88751221	        -14.69192696	
          1.07499993	        132.05818176	         62.96458435	        173.89555359	        -54.30588913	       -272.10446167	        -23.54108620	
          1.08333325	        131.62400818	         51.02269745	        179.44625854	        -49.52360535	       -274.41326904	        -24.61706734	
          1.09166670	        110.90629578	         13.84014416	        187.45343018	        -32.99457550	       -276.55731201	        -23.38085365	
          1.09999990	         90.81230927	        -17.17500305	        194.60667419	        -16.35841370	       -277.58587646	        -20.32562637	
          1.10833335	         74.83550262	        -38.08845520	        199.88098145	         -1.91992927	       -277.32778931	        -16.27382851	
          1.11666656	         69.79839325	        -42.54855347	        204.77536011	          7.05262995	       -277.12741089	        -12.49550152	
          1.12500000	         53.14421844	        -46.30984497	        208.85034180	         12.22880268	       -276.53970337	         -9.95653248	
          1.13333321	         51.09121323	        -40.43081665	        207.88436890	          9.59880829	       -276.00332642	         -9.16034412	
          1.14166665	         69.85389709	        -35.89530945	        201.53839111	          4.19297171	       -274.16345215	         -9.75727272	
          1.14999998	         82.87975311	        -29.15066338	        197.39916992	         -1.94526184	       -272.28051758	        -10.73269367	
          1.15833330	         76.51738739	        -31.91203308	        194.48646545	         -2.40210009	       -271.09399414	        -11.18146324	
          1.16666663	         55.64928818	        -46.21775055	        189.16551208	          2.68197441	       -267.70437622	        -10.95722294	
          1.17499995	         17.07045555	        -62.36557770	        185.46078491	          6.34229469	       -263.56643677	        -10.46091175	
          1.18333328	        -16.13815498	        -57.26880264	        184.44996643	          2.15198898	       -257.32913208	         -9.91259861	
          1.19166660	        -44.10871506	        -45.41395187	        187.17317200	         -2.14470601	       -250.77868652	         -9.25008011	
          1.19999993	        -54.19683075	        -39.59378815	        186.59780884	         -3.54200506	       -242.64086914	         -8.68119717	
          1.20833325	        -44.19477081	        -43.73059845	        185.72286987	         -3.57905602	       -235.80038452	         -8.34514427	
          1.21666670	        -28.21997833	        -48.01015472	        183.18672180	         -5.67506123	       -227.03067017	         -8.13236904	
          1.22499990	        -15.97548580	        -53.00905991	        180.32490540	         -7.24043894	       -217.93484497	         -7.99417353	
          1.23333335	         13.40391541	        -57.27731323	        170.98855591	         -6.54395628	       -205.37117004	         -7.78002930	
          1.24166656	         39.16490555	        -63.14982224	        161.05862427	         -4.76533890	       -190.79161072	         -7.66386890	
          1.25000000	         44.52615356	        -61.99151993	        153.65893555	         -7.60299587	       -173.25717163	         -7.89161301	
          1.25833321	         25.86549568	        -62.44929504	        150.08189392	        -10.54365826	       -152.63012695	         -8.23332977	
          1.26666665	          0.82732606	        -63.09696960	        147.21562195	        -12.53461170	       -130.79536438	         -8.74421883	
          1.27499998	        -24.13085747	        -67.96463776	        143.52871704	        -14.06409550	       -108.86721039	         -9.29510689	
          1.28333330	        -51.67179108	        -69.96205139	        140.31517029	        -18.46912575	        -87.18849945	         -9.75411415	
          1.29166663	        -76.22334290	        -74.85840607	        136.33850098	        -22.08026886	        -67.76756287	        -10.28826427	
          1.29999995	        -73.00257874	        -81.27301788	        125.69943237	        -22.98925018	        -46.92879868	        -10.73966694	
          1.30833328	        -58.19486618	        -92.20809174	        112.09609985	        -20.48600006	        -25.60129356	        -11.03000259	
          1.31666660	        -47.77426910	        -93.73371124	         96.53968048	        -20.88905907	         -0.38620168	        -11.28076172	
          1.32499993	        -46.12802505	        -90.34174347	         83.41902924	        -23.32300758	         26.41953850	        -11.53509712	
          1.33333325	        -51.27306366	        -92.95909882	         72.36448669	        -23.09273529	         54.12338638	        -11.86902332	
          1.34166658	        -59.23550797	        -98.81152344	         59.99491119	        -20.77668381	         83.51250458	        -12.06980228	
          1.34999990	        -67.78421021	        -97.71225739	         46.19713211	        -21.04016113	        113.14273834	        -12.12000656	
          1.35833323	        -78.82784271	        -90.47043610	         31.64400291	        -22.92646790	        144.58781433	        -12.32239246	
          1.36666667	        -84.85395050	        -81.66303253	         13.69066334	        -24.11150360	        177.65066528	        -12.59749889	
          1.37500000	        -88.24979401	        -67.95338440	         -5.03899813	        -26.55092430	        209.78036499	        -12.81854630	
          1.38333333	        -92.85736847	        -49.65931320	        -23.89471817	        -30.30489159	        242.71122742	        -12.86505127	
          1.39166665	        -95.30893707	        -33.87800598	        -41.95859528	        -33.35326767	        274.20220947	        -12.78418732	
          1.39999998	        -97.62351227	        -27.98444748	        -59.77346420	        -33.65855408	        306.55810547	        -12.83321667	
          1.40833330	       -105.11026764	        -32.91324234	        -76.31542206	        -30.20748329	        340.14224243	        -13.03467655	
          1.41666663	       -108.44841766	        -36.81828308	        -93.00030518	        -27.02277184	        374.40051270	        -13.22546673	
          1.42499995	        -96.90650177	        -34.80294037	       -112.21179199	        -26.36496544	        408.83370972	        -13.19901180	
          1.43333328	        -97.04059601	        -36.45106506	       -127.99196625	        -24.55117989	        444.13806152	        -12.95362091	
          1.44166660	       -117.29312897	        -36.15504074	       -140.05322266	        -23.87170792	        479.92993164	        -12.48244095	
          1.44999993	       -129.12986755	        -27.90646935	       -152.56272888	        -26.50527763	        513.74572754	        -11.62602711	
          1.45833325	       -124.91799164	        -17.39804840	       -167.01187134	        -29.29833031	        546.40588379	        -10.55304241	
          1.46666658	       -129.69886780	         -8.75756645	       -178.76582336	        -30.88436699	        579.29431152	         -9.54260254	
          1.47499990	       -148.08007813	         -6.85469198	       -185.50009155	        -30.62396240	        610.74609375	         -8.81098080	
          1.48333323	       -165.03631592	        -10.29314804	       -192.77047729	        -28.86933899	        642.38360596	         -8.51163292	
          1.49166667	       -173.54566956	         -8.14372730	       -200.15676880	        -28.62593460	        671.20336914	         -8.41548538	
          1.50000000	       -183.80915833	         -2.46335053	       -206.06538391	        -28.83144760	        699.44500732	         -8.26150131	
          1.50833333	       -214.26667786	         -1.48682439	       -206.08343506	        -27.72568321	        726.40002441	         -8.06745338	
          1.51666665	       -240.85502625	         -0.91569221	       -206.52169800	        -27.70046234	        752.41094971	         -7.95397425	
          1.52499998	       -241.29566956	          7.90161991	       -211.00558472	        -30.92238998	        776.04138184	         -7.94958782	
          1.53333330	       -241.23204041	         21.23548126	       -212.74461365	        -35.31904221	        797.71899414	         -7.90102577	
          1.54166663	       -249.35633850	         28.04213905	       -210.25810242	        -37.38512802	        817.93157959	         -7.74498177	
          1.54999995	       -260.10760498	         30.02606392	       -204.46549988	        -38.48793793	        836.55419922	         -7.69603109	
          1.55833328	       -278.17736816	         31.83482170	       -196.49324036	        -40.41893768	        854.52813721	         -7.71244383	
          1.56666660	       -296.43069458	         29.99567413	       -189.64654541	        -40.84477234	        871.13372803	         -7.46467590	
          1.57499993	       -309.75296021	         26.15581894	       -183.63714600	        -38.84369278	        885.60656738	         -6.91242456	
          1.58333325	       -321.21023560	         32.57489777	       -178.61427307	        -39.24197769	        899.69024658	         -6.34926176	
          1.59166658	       -333.38580322	         48.98870468	       -173.11538696	        -43.16471481	        911.05310059	         -5.97508144	
          1.59999990	       -339.67608643	         63.23449326	       -171.52418518	        -46.39247131	        920.42077637	         -5.70659590	
          1.60833323	       -337.55197144	         77.35290527	       -169.87440491	        -49.62633896	        928.93579102	         -5.48351383	
          1.61666667	       -346.84631348	         92.67627716	       -165.37574768	        -53.73288345	        934.71435547	         -5.49103498	
          1.62500000	       -360.97024536	        100.62059021	       -161.84527588	        -56.57225800	        939.42144775	         -5.76475477	
          1.63333333	       -377.12228394	         99.65227509	       -158.75439453	        -57.71408463	        944.21118164	         -6.05847120	
          1.64166665	       -396.15228271	         93.69069672	       -151.01963806	        -56.46456146	        945.75341797	         -6.00033474	
          1.64999998	       -405.19494629	        104.03906250	       -147.89022827	        -59.92104340	        947.28240967	         -5.70839453	
          1.65833330	       -419.00357056	        104.61827850	       -141.50172424	        -57.13932419	        946.92993164	         -5.28197527	
